<svg xmlns="http://www.w3.org/2000/svg" xmlns:xlink="http://www.w3.org/1999/xlink" width="80" height="80" viewBox="0 0 80 80">
  <defs>
    <clipPath id="clip-path">
      <rect id="Rectangle_2944" data-name="Rectangle 2944" width="45.003" height="45" fill="none"/>
    </clipPath>
  </defs>
  <g id="Group_6066" data-name="Group 6066" transform="translate(-90 -29)">
    <circle id="Ellipse_155" data-name="Ellipse 155" cx="40" cy="40" r="40" transform="translate(90 29)" fill="#f8f8f8"/>
    <g id="Group_6065" data-name="Group 6065" transform="translate(107.494 46.5)">
      <g id="Group_6064" data-name="Group 6064" clip-path="url(#clip-path)">
        <path id="Path_7746" data-name="Path 7746" d="M74.975,82.749a7.775,7.775,0,1,1,7.775-7.775,7.784,7.784,0,0,1-7.775,7.775m0-14.4A6.626,6.626,0,1,0,81.6,74.974a6.633,6.633,0,0,0-6.626-6.626" transform="translate(-42.019 -42.018)" fill="#2b2b2b"/>
        <path id="Path_7747" data-name="Path 7747" d="M104.184,106.1a1.869,1.869,0,0,1-1.327-.549l-4.986-4.985a.575.575,0,0,1,0-.812l1.874-1.874a.591.591,0,0,1,.812,0l4.985,4.986a1.886,1.886,0,0,1,0,2.668,1.92,1.92,0,0,1-1.359.568m-5.094-5.941,4.58,4.579a.739.739,0,0,0,1.043,0,.751.751,0,0,0,.235-.54.732.732,0,0,0-.217-.522l-4.579-4.58Z" transform="translate(-61.092 -61.103)" fill="#2b2b2b"/>
        <path id="Path_7748" data-name="Path 7748" d="M20.26,40.519A20.243,20.243,0,1,1,38.918,28.166a.574.574,0,0,1-1.057-.449A19.095,19.095,0,1,0,27.74,37.851a.574.574,0,0,1,.45,1.057,20.14,20.14,0,0,1-7.93,1.611" fill="#2b2b2b"/>
        <path id="Path_7749" data-name="Path 7749" d="M30.6,21.093a20.187,20.187,0,0,1-13.883-5.5.574.574,0,0,1,.787-.837,19.038,19.038,0,0,0,13.1,5.192,19.027,19.027,0,0,0,13.185-5.276.574.574,0,1,1,.792.831A20.172,20.172,0,0,1,30.6,21.093" transform="translate(-10.339 -9.072)" fill="#2b2b2b"/>
        <path id="Path_7750" data-name="Path 7750" d="M17.3,82.483a.574.574,0,0,1-.392-.994A20.291,20.291,0,0,1,36.844,77,.574.574,0,1,1,36.5,78.09a19.145,19.145,0,0,0-18.8,4.238.571.571,0,0,1-.391.155" transform="translate(-10.459 -47.555)" fill="#2b2b2b"/>
        <path id="Path_7751" data-name="Path 7751" d="M35.882,40.519c-6.009,0-10.9-9.088-10.9-20.259S29.874,0,35.882,0s10.9,9.088,10.9,20.26a37.012,37.012,0,0,1-.472,5.946.568.568,0,0,1-.659.474.574.574,0,0,1-.474-.659,35.913,35.913,0,0,0,.456-5.761c0-10.538-4.374-19.111-9.749-19.111S26.134,9.722,26.134,20.26,30.507,39.37,35.882,39.37c2.022,0,3.973-1.235,5.641-3.574a.574.574,0,0,1,.935.667c-1.893,2.653-4.168,4.056-6.576,4.056" transform="translate(-15.623)" fill="#2b2b2b"/>
        <path id="Path_7752" data-name="Path 7752" d="M39.945,53.683H.574a.574.574,0,1,1,0-1.148h39.37a.574.574,0,1,1,0,1.148" transform="translate(0 -32.849)" fill="#2b2b2b"/>
        <path id="Path_7753" data-name="Path 7753" d="M53.108,40.519a.575.575,0,0,1-.574-.574V.574a.574.574,0,1,1,1.148,0v39.37a.575.575,0,0,1-.574.574" transform="translate(-32.849)" fill="#2b2b2b"/>
      </g>
    </g>
  </g>
</svg>
